<mxfile host="app.diagrams.net" modified="2023-06-13T13:36:23.799Z" agent="Mozilla/5.0 (X11; Linux x86_64) AppleWebKit/537.36 (KHTML, like Gecko) Chrome/114.0.0.0 Safari/537.36" version="21.3.5" etag="9bEBbUdoEXmpqij0RyRv" type="github">
  <diagram name="Страница 1" id="D-hJYi6jZZ629YfZou7S">
    <mxGraphModel>
      <root>
        <mxCell id="0" />
        <mxCell id="1" parent="0" />
      </root>
    </mxGraphModel>
  </diagram>
</mxfile>
